<?xml version="1.0" encoding="utf-8"?>
<svg xmlns="http://www.w3.org/2000/svg" style="margin: auto; background: none; display: block; shape-rendering: auto;" width="280" height="250" preserveAspectRatio="xMidYMid">
<style type="text/css">
  text {
    text-anchor: middle; font-size: 46px; opacity: 0;
  }
</style>
<g style="transform-origin:140px 125px;transform:scale(1)">
<g transform="translate(140,125)">
  <g transform="translate(0,0)"><g class="path" style="opacity: 1; transform-origin: -65.615px -1.0446px; animation: 3.44828s linear -2.1133s infinite normal forwards running fade-55178ea8-f62a-41b4-aab5-bc6b62068fd6;"><path d="M7.18-22.13L7.18-22.13L7.18-22.13Q3.91-22.13 3.91-16.05L3.91-16.05L3.91-15.73L3.91-15.73Q3.91-15.13 3.63-15.13L3.63-15.13L3.63-15.13Q2.94-15.13 2.60-16.79L2.60-16.79L2.60-16.79Q2.25-18.45 2.25-19.60L2.25-19.60L2.25-19.60Q2.25-21.48 3.10-22.95L3.10-22.95L3.10-22.95Q3.96-24.43 5.75-24.43L5.75-24.43L5.75-24.43Q9.29-24.43 12.56-20.29L12.56-20.29L12.56-20.29Q15.32-23.51 18.47-26.79L18.47-26.79L18.47-26.79Q21.62-30.08 23.37-31.74L23.37-31.74L25.12-33.44L25.12-33.44Q27.97-37.72 29.81-37.72L29.81-37.72L29.81-37.72Q30.27-37.72 30.27-37.31L30.27-37.31L30.27-37.31Q30.27-37.03 30.08-36.66L30.08-36.66L30.08-36.66Q26.04-28.70 22.68-18.72L22.68-18.72L22.68-18.72Q18.45-6.03 18.45 0.74L18.45 0.74L18.45 0.74Q18.45 2.85 18.95 3.82L18.95 3.82L18.95 3.82Q19.14 4.05 19.14 4.28L19.14 4.28L19.14 4.28Q19.14 4.60 18.58 4.60L18.58 4.60L18.58 4.60Q17.34 4.60 16.51 3.98L16.51 3.98L16.51 3.98Q15.69 3.36 15.34 2.35L15.34 2.35L15.34 2.35Q15.00 1.33 14.86 0.53L14.86 0.53L14.86 0.53Q14.72-0.28 14.72-1.10L14.72-1.10L14.72-1.10Q14.72-2.48 15.23-5.20L15.23-5.20L15.23-5.20Q15.73-7.91 15.73-9.15L15.73-9.15L15.73-9.15Q15.73-10.99 14.93-13.50L14.93-13.50L14.93-13.50Q14.12-16.01 12.79-18.08L12.79-18.08L12.79-18.08Q11.32-16.05 10.10-14.03L10.10-14.03L10.10-14.03Q8.88-12.01 8.37-11.04L8.37-11.04L7.91-10.03L7.91-10.03Q6.26-6.62 4.65-3.82L4.65-3.82L4.65-3.82Q3.04-1.01 2.25 0.09L2.25 0.09L1.47 1.15L1.47 1.15Q0.97 1.75 0.55 1.75L0.55 1.75L0.55 1.75Q0.05 1.75 0.05 0.69L0.05 0.69L0.05 0.69Q0.18-5.80 11.82-19.41L11.82-19.41L11.82-19.41Q9.57-22.13 7.18-22.13zM23.46-29.53L22.95-29.35L22.95-29.35Q17.89-24.93 13.48-19.00L13.48-19.00L13.48-19.00Q15.41-16.05 16.47-12.28L16.47-12.28L16.47-12.28Q16.61-11.87 16.70-11.87L16.70-11.87L16.93-12.28L16.93-12.28Q18.08-16.19 19.71-20.40L19.71-20.40L19.71-20.40Q21.34-24.61 22.40-26.86L22.40-26.86L23.46-29.07L23.46-29.07Q23.60-29.35 23.60-29.44L23.60-29.44L23.60-29.44Q23.60-29.53 23.46-29.53L23.46-29.53" fill="#00ffe5" stroke="none" stroke-width="none" transform="translate(-80.77499389648438,15.515401524135038)" style="fill: rgb(0, 255, 229);"></path></g><g class="path" style="opacity: 1; transform-origin: -62.49px 18.8304px; animation: 3.44828s linear -1.95074s infinite normal forwards running fade-55178ea8-f62a-41b4-aab5-bc6b62068fd6;"><path d="M26.96-9.48L26.96-9.48L26.96-9.48Q26.13-7.91 23.46-3.31L23.46-3.31L23.46-3.31Q26.27-5.57 28.20-7.31L28.20-7.31L28.20-7.31Q30.22-9.43 32.94-12.51L32.94-12.51L32.94-12.51Q33.07-12.65 33.17-12.65L33.17-12.65L33.17-12.65Q33.26-12.65 33.26-12.47L33.26-12.47L33.26-12.47Q33.26-11.59 32.57-10.76L32.57-10.76L32.57-10.76Q30.54-8.56 29.07-6.99L29.07-6.99L29.07-6.99Q27.23-5.06 22.22-1.10L22.22-1.10L22.22-1.10Q21.21 0.64 20.98 1.10L20.98 1.10L20.98 1.10Q12.10 17.43 8.74 22.36L8.74 22.36L8.74 22.36Q8.42 22.86 7.91 23.57L7.91 23.57L7.91 23.57Q7.41 24.29 6.26 25.51L6.26 25.51L6.26 25.51Q5.11 26.73 4.42 26.73L4.42 26.73L4.42 26.73Q3.31 26.73 3.31 23.55L3.31 23.55L3.31 23.55Q3.31 18.86 6.67 13.34L6.67 13.34L6.67 13.34Q10.12 7.64 17.85 1.24L17.85 1.24L22.45-7.68L22.45-7.68Q26.54-15.27 28.06-17.34L28.06-17.34L28.06-17.34Q29.03-18.58 30.31-19.34L30.31-19.34L30.31-19.34Q31.60-20.10 32.34-20.10L32.34-20.10L32.34-20.10Q32.75-20.10 32.75-19.87L32.75-19.87L32.75-19.87Q32.75-19.78 32.66-19.60L32.66-19.60L32.66-19.60Q27.51-10.53 26.96-9.48zM7.82 13.25L7.82 13.25L7.82 13.25Q7.45 13.80 6.95 14.70L6.95 14.70L6.95 14.70Q6.44 15.59 5.57 17.78L5.57 17.78L5.57 17.78Q4.69 19.96 4.69 21.44L4.69 21.44L4.69 21.44Q4.69 22.22 4.97 22.22L4.97 22.22L4.97 22.22Q5.20 22.22 5.66 21.78L5.66 21.78L5.66 21.78Q6.12 21.34 6.44 20.88L6.44 20.88L6.76 20.42L6.76 20.42Q10.90 13.98 16.61 3.45L16.61 3.45L16.61 3.45Q10.72 8.60 7.82 13.25" fill="#00ffe5" stroke="none" stroke-width="none" transform="translate(-80.77499389648438,15.515401524135038)" style="fill: rgb(0, 255, 229);"></path></g><g class="path" style="opacity: 1; transform-origin: -46.665px -9.8496px; animation: 3.44828s linear -1.78818s infinite normal forwards running fade-55178ea8-f62a-41b4-aab5-bc6b62068fd6;"><path d="M33.03-22.72L33.03-22.72L33.03-22.72Q31.88-22.72 31.88-24.10L31.88-24.10L31.88-24.10Q31.88-25.39 32.84-26.70L32.84-26.70L32.84-26.70Q33.81-28.01 34.96-28.01L34.96-28.01L34.96-28.01Q36.34-28.01 36.34-26.45L36.34-26.45L36.34-26.45Q36.34-25.16 35.28-23.94L35.28-23.94L35.28-23.94Q34.22-22.72 33.03-22.72" fill="#00ffe5" stroke="none" stroke-width="none" transform="translate(-80.77499389648438,15.515401524135038)" style="fill: rgb(0, 255, 229);"></path></g><g class="path" style="opacity: 1; transform-origin: -46.39px 5.7654px; animation: 3.44828s linear -1.62562s infinite normal forwards running fade-55178ea8-f62a-41b4-aab5-bc6b62068fd6;"><path d="M34.87-4.46L34.87-4.46L34.87-4.46Q29.49 0.60 27.97 0.60L27.97 0.60L27.97 0.60Q27.19 0.60 27.19-0.46L27.19-0.46L27.19-0.46Q27.19-1.52 28.01-3.54L28.01-3.54L28.01-3.54Q28.84-5.57 29.67-7.08L29.67-7.08L30.50-8.56L30.50-8.56Q33.99-14.67 35.79-17.34L35.79-17.34L35.79-17.34Q36.57-18.49 37.79-19.30L37.79-19.30L37.79-19.30Q39.01-20.10 40.07-20.10L40.07-20.10L40.07-20.10Q40.43-20.10 40.43-19.78L40.43-19.78L40.43-19.78Q40.43-19.55 40.11-18.91L40.11-18.91L40.11-18.91Q39.56-17.89 37.40-14.08L37.40-14.08L37.40-14.08Q35.24-10.26 34.82-9.48L34.82-9.48L34.82-9.48Q32.94-6.16 32.94-5.06L32.94-5.06L32.94-5.06Q32.94-4.65 33.21-4.65L33.21-4.65L33.21-4.65Q33.67-4.65 36.16-6.95L36.16-6.95L36.16-6.95Q38.09-8.88 41.26-12.51L41.26-12.51L41.26-12.51Q41.40-12.65 41.49-12.65L41.49-12.65L41.49-12.65Q41.58-12.65 41.58-12.47L41.58-12.47L41.58-12.47Q41.58-11.59 40.89-10.76L40.89-10.76L40.89-10.76Q37.49-6.99 34.87-4.46" fill="#00ffe5" stroke="none" stroke-width="none" transform="translate(-80.77499389648438,15.515401524135038)" style="fill: rgb(0, 255, 229);"></path></g><g class="path" style="opacity: 1; transform-origin: -38.705px -9.8496px; animation: 3.44828s linear -1.46305s infinite normal forwards running fade-55178ea8-f62a-41b4-aab5-bc6b62068fd6;"><path d="M40.99-22.72L40.99-22.72L40.99-22.72Q39.84-22.72 39.84-24.10L39.84-24.10L39.84-24.10Q39.84-25.39 40.80-26.70L40.80-26.70L40.80-26.70Q41.77-28.01 42.92-28.01L42.92-28.01L42.92-28.01Q44.30-28.01 44.30-26.45L44.30-26.45L44.30-26.45Q44.30-25.16 43.24-23.94L43.24-23.94L43.24-23.94Q42.18-22.72 40.99-22.72" fill="#00ffe5" stroke="none" stroke-width="none" transform="translate(-80.77499389648438,15.515401524135038)" style="fill: rgb(0, 255, 229);"></path></g><g class="path" style="opacity: 1; transform-origin: -33.095px -3.2546px; animation: 3.44828s linear -1.30049s infinite normal forwards running fade-55178ea8-f62a-41b4-aab5-bc6b62068fd6;"><path d="M44.90-6.95L44.90-6.95L44.90-6.95Q46.83-8.88 50.00-12.51L50.00-12.51L50.00-12.51Q50.14-12.65 50.23-12.65L50.23-12.65L50.23-12.65Q50.32-12.65 50.32-12.47L50.32-12.47L50.32-12.47Q50.32-11.59 49.63-10.76L49.63-10.76L49.63-10.76Q46.23-6.99 43.61-4.46L43.61-4.46L43.61-4.46Q38.09 0.87 36.29 0.87L36.29 0.87L36.29 0.87Q35.65 0.87 35.65 0.05L35.65 0.05L35.65 0.05Q35.65-0.92 36.39-2.85L36.39-2.85L36.39-2.85Q37.12-4.78 37.86-6.26L37.86-6.26L38.59-7.68L38.59-7.68Q39.65-9.57 42.09-14.12L42.09-14.12L42.09-14.12Q44.53-18.68 46.80-22.72L46.80-22.72L46.80-22.72Q49.08-26.77 51.11-30.04L51.11-30.04L47.47-30.04L47.47-30.04Q47.01-30.04 47.01-30.27L47.01-30.27L47.01-30.27Q47.01-30.50 47.38-30.73L47.38-30.73L47.38-30.73Q47.75-30.96 48.16-30.96L48.16-30.96L48.16-30.96Q49.17-30.96 51.70-31.00L51.70-31.00L51.70-31.00Q53.96-34.55 55.57-36.62L55.57-36.62L55.57-36.62Q56.99-38.41 57.55-38.41L57.55-38.41L57.55-38.41Q57.87-38.41 57.87-38.00L57.87-38.00L57.87-38.00Q57.87-37.03 56.12-33.86L56.12-33.86L54.56-31.00L59.29-31.00L59.29-31.00Q59.71-31.00 59.71-30.77L59.71-30.77L59.71-30.77Q59.71-30.04 58.37-30.04L58.37-30.04L54.05-30.04L54.05-30.04Q43.42-9.89 42.87-8.92L42.87-8.92L42.87-8.92Q40.94-5.38 40.94-4.32L40.94-4.32L40.94-4.32Q40.94-4.00 41.17-4.00L41.17-4.00L41.17-4.00Q41.81-4.00 44.90-6.95" fill="#00ffe5" stroke="none" stroke-width="none" transform="translate(-80.77499389648438,15.515401524135038)" style="fill: rgb(0, 255, 229);"></path></g><g class="path" style="opacity: 1; transform-origin: -26.17px 5.9254px; animation: 3.44828s linear -1.13793s infinite normal forwards running fade-55178ea8-f62a-41b4-aab5-bc6b62068fd6;"><path d="M58.28-15.59L58.28-15.59L58.28-15.59Q58.83-16.74 58.83-17.62L58.83-17.62L58.83-17.62Q58.83-18.35 58.37-18.35L58.37-18.35L58.37-18.35Q58.10-18.35 57.75-18.19L57.75-18.19L57.75-18.19Q57.41-18.03 57.22-17.85L57.22-17.85L56.99-17.66L56.99-17.66Q55.57-16.42 53.43-13.13L53.43-13.13L53.43-13.13Q51.29-9.84 51.29-8.92L51.29-8.92L51.29-8.92Q51.29-8.74 51.38-8.74L51.38-8.74L51.38-8.74Q51.66-8.74 52.60-9.20L52.60-9.20L52.60-9.20Q53.54-9.66 55.31-11.36L55.31-11.36L55.31-11.36Q57.09-13.06 58.28-15.59zM56.21-5.06L56.21-5.06L56.21-5.06Q58.65-7.31 63.20-12.51L63.20-12.51L63.20-12.51Q63.34-12.65 63.43-12.65L63.43-12.65L63.43-12.65Q63.53-12.65 63.53-12.47L63.53-12.47L63.53-12.47Q63.53-11.59 62.84-10.76L62.84-10.76L62.84-10.76Q59.43-6.99 56.81-4.46L56.81-4.46L56.81-4.46Q54.88-2.53 52.21-0.76L52.21-0.76L52.21-0.76Q49.54 1.01 47.79 1.01L47.79 1.01L47.79 1.01Q45.68 1.01 45.68-1.93L45.68-1.93L45.68-1.93Q45.68-6.81 49.29-12.14L49.29-12.14L49.29-12.14Q52.90-17.48 57.64-19.37L57.64-19.37L57.64-19.37Q59.62-20.19 61.23-20.19L61.23-20.19L61.23-20.19Q63.02-20.19 63.02-18.77L63.02-18.77L63.02-18.77Q63.02-16.10 59.25-12.65L59.25-12.65L59.25-12.65Q55.48-9.20 50.78-7.41L50.78-7.41L50.78-7.41Q50.60-7.36 50.46-7.08L50.46-7.08L50.46-7.08Q49.77-5.20 49.77-3.73L49.77-3.73L49.77-3.73Q49.77-2.07 51.01-2.07L51.01-2.07L51.01-2.07Q52.99-2.07 56.21-5.06" fill="#00ffe5" stroke="none" stroke-width="none" transform="translate(-80.77499389648438,15.515401524135038)" style="fill: rgb(0, 255, 229);"></path></g><g class="path" style="opacity: 1; transform-origin: -14.905px 5.3054px; animation: 3.44828s linear -0.975369s infinite normal forwards running fade-55178ea8-f62a-41b4-aab5-bc6b62068fd6;"><path d="M69.69-5.24L69.69-5.24L69.69-5.24Q68.86-2.99 67.07-1.45L67.07-1.45L67.07-1.45Q65.27 0.09 63.73 0.64L63.73 0.64L63.73 0.64Q62.19 1.20 60.95 1.20L60.95 1.20L60.95 1.20Q57.59 1.20 57.59-1.43L57.59-1.43L57.59-1.43Q57.59-4.09 60.54-6.26L60.54-6.26L60.54-6.26Q61.92-7.27 63.53-7.59L63.53-7.59L63.53-7.59Q63.76-7.59 63.76-7.41L63.76-7.41L63.76-7.41Q63.76-7.31 63.66-7.22L63.66-7.22L63.66-7.22Q62.51-6.35 61.48-4.51L61.48-4.51L61.48-4.51Q60.44-2.67 60.44-1.29L60.44-1.29L60.44-1.29Q60.44 0.09 61.59 0.09L61.59 0.09L61.59 0.09Q62.51 0.09 63.41-0.67L63.41-0.67L63.41-0.67Q64.31-1.43 64.77-2.21L64.77-2.21L65.23-2.94L65.23-2.94Q66.15-4.42 66.77-7.64L66.77-7.64L66.77-7.64Q67.39-10.86 67.57-13.34L67.57-13.34L67.71-15.82L67.71-15.82Q67.71-16.19 67.57-16.19L67.57-16.19L67.39-16.10L62.84-10.76L62.84-10.76Q62.33-10.17 62.15-10.17L62.15-10.17L62.15-10.17Q61.92-10.17 61.92-10.49L61.92-10.49L61.92-10.49Q61.92-11.09 62.24-11.41L62.24-11.41L62.65-11.91L62.65-11.91Q67.90-17.80 68.63-19.04L68.63-19.04L68.63-19.04Q69.32-20.10 70.66-20.88L70.66-20.88L70.66-20.88Q71.94-21.62 73.69-21.62L73.69-21.62L73.69-21.62Q74.15-21.62 74.15-21.25L74.15-21.25L74.15-21.25Q74.15-21.02 73.78-20.84L73.78-20.84L73.78-20.84Q73.65-20.79 73.44-20.63L73.44-20.63L73.44-20.63Q73.23-20.47 72.70-19.87L72.70-19.87L72.70-19.87Q72.17-19.27 71.76-18.49L71.76-18.49L71.76-18.49Q71.35-17.71 71.02-16.31L71.02-16.31L71.02-16.31Q70.70-14.90 70.70-13.20L70.70-13.20L70.70-13.20Q70.70-7.91 69.69-5.24" fill="#00ffe5" stroke="none" stroke-width="none" transform="translate(-80.77499389648438,15.515401524135038)" style="fill: rgb(0, 255, 229);"></path></g><g class="path" style="opacity: 1; transform-origin: 1.42501px -5.2746px; animation: 3.44828s linear -0.812808s infinite normal forwards running fade-55178ea8-f62a-41b4-aab5-bc6b62068fd6;"><path d="M87.95-6.95L87.95-6.95L87.95-6.95Q89.88-8.88 93.06-12.51L93.06-12.51L93.06-12.51Q93.20-12.65 93.29-12.65L93.29-12.65L93.29-12.65Q93.38-12.65 93.38-12.47L93.38-12.47L93.38-12.47Q93.38-11.59 92.69-10.76L92.69-10.76L92.69-10.76Q89.29-6.99 86.66-4.46L86.66-4.46L86.66-4.46Q81.14 0.64 79.40 0.64L79.40 0.64L79.40 0.64Q78.71 0.64 78.71-0.23L78.71-0.23L78.71-0.23Q78.71-1.89 80.59-5.27L80.59-5.27L80.59-5.27Q82.48-8.65 84.34-11.57L84.34-11.57L84.34-11.57Q86.20-14.49 86.20-15.00L86.20-15.00L86.20-15.00Q86.20-15.27 85.93-15.27L85.93-15.27L85.93-15.27Q84.82-15.27 81.74-11.87L81.74-11.87L81.74-11.87Q78.66-8.46 76.54-5.75L76.54-5.75L76.54-5.75Q74.20-2.81 72.47-1.06L72.47-1.06L72.47-1.06Q70.75 0.69 70.20 0.92L70.20 0.92L69.60 1.20L69.60 1.20Q69.18 1.20 69.18 0.74L69.18 0.74L69.18 0.74Q69.18 0 70.01-1.89L70.01-1.89L70.01-1.89Q70.84-3.77 71.67-5.29L71.67-5.29L72.50-6.81L79.67-19.69L79.67-19.69Q88.14-34.64 93.01-40.94L93.01-40.94L93.01-40.94Q94.39-42.78 94.94-42.78L94.94-42.78L94.94-42.78Q95.22-42.78 95.22-42.41L95.22-42.41L95.22-42.41Q95.22-41.45 93.75-38.46L93.75-38.46L93.75-38.46Q86.53-25.44 83.72-20.42L83.72-20.42L83.72-20.42Q82.02-17.39 80.64-15.02L80.64-15.02L80.64-15.02Q79.26-12.65 78.68-11.68L78.68-11.68L78.68-11.68Q78.11-10.72 77.69-10.00L77.69-10.00L77.69-10.00Q77.28-9.29 77.05-8.79L77.05-8.79L77.05-8.79Q77.00-8.65 77.00-8.51L77.00-8.51L77.00-8.51Q77.00-8.28 77.10-8.28L77.10-8.28L77.10-8.28Q77.19-8.28 77.46-8.56L77.46-8.56L77.46-8.56Q87.77-20.01 90.99-20.01L90.99-20.01L90.99-20.01Q91.63-20.01 91.63-19.37L91.63-19.37L91.63-19.37Q91.63-19.18 91.45-18.56L91.45-18.56L91.45-18.56Q91.26-17.94 90.39-16.05L90.39-16.05L90.39-16.05Q89.52-14.17 88.09-11.87L88.09-11.87L88.09-11.87Q87.22-10.58 85.88-8.19L85.88-8.19L85.88-8.19Q84.55-5.80 84.55-5.06L84.55-5.06L84.55-5.06Q84.55-4.65 84.96-4.65L84.96-4.65L84.96-4.65Q85.10-4.65 85.35-4.76L85.35-4.76L85.35-4.76Q85.61-4.88 85.93-5.15L85.93-5.15L85.93-5.15Q86.25-5.43 86.50-5.66L86.50-5.66L86.50-5.66Q86.76-5.89 87.24-6.33L87.24-6.33L87.24-6.33Q87.72-6.76 87.95-6.95" fill="#00ffe5" stroke="none" stroke-width="none" transform="translate(-80.77499389648438,15.515401524135038)" style="fill: rgb(0, 255, 229);"></path></g><g class="path" style="opacity: 1; transform-origin: 32.82px -1.4096px; animation: 3.44828s linear -0.650246s infinite normal forwards running fade-55178ea8-f62a-41b4-aab5-bc6b62068fd6;"><path d="M127.79-27.92L127.79-27.92L127.79-27.92Q123.19-21.85 119.19-14.67L119.19-14.67L119.19-14.67Q115.18-7.50 113.48-3.36L113.48-3.36L111.78 0.78L111.78 0.78Q111.04 2.35 110.49 2.35L110.49 2.35L110.49 2.35Q110.22 2.35 110.01 2.02L110.01 2.02L110.01 2.02Q109.80 1.70 109.71 1.38L109.71 1.38L109.62 1.06L109.62 1.06Q109.02-2.67 109.02-6.76L109.02-6.76L109.02-6.76Q109.02-10.03 109.48-16.26L109.48-16.26L109.48-16.26Q109.94-22.49 109.94-25.35L109.94-25.35L109.94-25.35Q109.94-25.81 109.76-25.81L109.76-25.81L109.76-25.81Q109.66-25.81 109.50-25.67L109.50-25.67L109.50-25.67Q109.34-25.53 109.25-25.39L109.25-25.39L109.16-25.25L109.16-25.25Q107.36-22.68 105.04-17.92L105.04-17.92L105.04-17.92Q102.72-13.16 101.38-9.71L101.38-9.71L101.38-9.71Q100.37-7.08 99.29-4.97L99.29-4.97L99.29-4.97Q98.21-2.85 97.38-1.66L97.38-1.66L97.38-1.66Q96.55-0.46 95.86 0.34L95.86 0.34L95.86 0.34Q95.17 1.15 94.81 1.43L94.81 1.43L94.44 1.70L94.44 1.70Q93.89 2.12 93.66 2.12L93.66 2.12L93.66 2.12Q93.38 2.12 93.38 1.66L93.38 1.66L93.38 1.66Q93.38-2.67 106.67-24.47L106.67-24.47L106.67-24.47Q107.78-26.27 108.67-27.78L108.67-27.78L108.67-27.78Q109.57-29.30 109.89-29.90L109.89-29.90L110.22-30.54L110.22-30.54Q112.15-35.93 113.16-35.93L113.16-35.93L113.16-35.93Q113.85-35.93 113.85-33.63L113.85-33.63L113.85-33.63Q114.17-22.54 114.17-15.00L114.17-15.00L114.17-15.00Q114.17-11.73 114.13-10.53L114.13-10.53L114.13-10.53Q114.22-9.80 114.54-9.80L114.54-9.80L114.54-9.80Q114.91-9.80 115.46-10.86L115.46-10.86L115.46-10.86Q120.38-20.24 121.67-23L121.67-23L121.67-23Q127.88-36.20 133.17-36.20L133.17-36.20L133.17-36.20Q133.81-36.20 133.81-35.83L133.81-35.83L133.81-35.83Q133.81-35.56 133.35-35.10L133.35-35.10L133.35-35.10Q132.16-33.72 127.79-27.92" fill="#00ffe5" stroke="none" stroke-width="none" transform="translate(-80.77499389648438,15.515401524135038)" style="fill: rgb(0, 255, 229);"></path></g><g class="path" style="opacity: 1; transform-origin: 47.175px 5.6954px; animation: 3.44828s linear -0.487685s infinite normal forwards running fade-55178ea8-f62a-41b4-aab5-bc6b62068fd6;"><path d="M130.82-2.90L130.82-2.90L130.82-2.90Q127.01 0.60 125.58 0.60L125.58 0.60L125.58 0.60Q124.94 0.60 124.94-0.14L124.94-0.14L124.94-0.14Q124.94-1.06 125.74-2.94L125.74-2.94L125.74-2.94Q126.55-4.83 127.37-6.26L127.37-6.26L128.20-7.68L128.20-7.68Q128.39-8.00 128.39-8.10L128.39-8.10L128.39-8.10Q128.39-8.19 128.29-8.19L128.29-8.19L128.29-8.19Q128.11-8.19 127.60-7.68L127.60-7.68L127.60-7.68Q126.22-6.16 124.45-4.44L124.45-4.44L124.45-4.44Q122.68-2.71 121.58-1.75L121.58-1.75L120.52-0.83L120.52-0.83Q118.73 0.55 117.76 0.55L117.76 0.55L117.76 0.55Q116.75 0.55 116.75-1.01L116.75-1.01L116.75-1.01Q116.75-1.79 117.18-3.40L117.18-3.40L117.18-3.40Q117.62-5.01 117.85-5.57L117.85-5.57L117.85-5.57Q118.91-8.14 120.50-10.58L120.50-10.58L120.50-10.58Q122.08-13.02 124.25-15.25L124.25-15.25L124.25-15.25Q126.41-17.48 129.28-18.86L129.28-18.86L129.28-18.86Q132.16-20.24 135.24-20.24L135.24-20.24L135.24-20.24Q137.82-20.24 137.82-19.46L137.82-19.46L137.82-19.46Q137.82-19.00 136.67-19.00L136.67-19.00L136.67-19.00Q132.43-19.00 128.73-15.39L128.73-15.39L128.73-15.39Q125.03-11.78 122.73-7.08L122.73-7.08L122.73-7.08Q122.08-5.80 122.08-4.92L122.08-4.92L122.08-4.92Q122.08-4.42 122.41-4.42L122.41-4.42L122.41-4.42Q122.96-4.42 123.83-5.20L123.83-5.20L123.83-5.20Q124.38-5.70 125.33-6.53L125.33-6.53L125.33-6.53Q126.27-7.36 128.39-9.71L128.39-9.71L128.39-9.71Q130.50-12.05 131.74-14.08L131.74-14.08L131.74-14.08Q131.93-14.44 132.32-14.95L132.32-14.95L132.32-14.95Q132.71-15.46 133.81-16.31L133.81-16.31L133.81-16.31Q134.92-17.16 136.02-17.16L136.02-17.16L136.02-17.16Q136.62-17.16 136.62-16.84L136.62-16.84L136.62-16.84Q136.62-16.74 136.48-16.51L136.48-16.51L136.48-16.51Q136.30-16.15 135.45-14.67L135.45-14.67L135.45-14.67Q134.60-13.20 133.86-11.89L133.86-11.89L133.86-11.89Q133.12-10.58 132.30-9.04L132.30-9.04L132.30-9.04Q131.47-7.50 130.98-6.39L130.98-6.39L130.98-6.39Q130.50-5.29 130.50-4.92L130.50-4.92L130.50-4.92Q130.50-4.65 130.73-4.65L130.73-4.65L130.73-4.65Q131.42-4.65 134.09-7.31L134.09-7.31L134.09-7.31Q136.11-9.43 138.83-12.51L138.83-12.51L138.83-12.51Q138.97-12.65 139.06-12.65L139.06-12.65L139.06-12.65Q139.15-12.65 139.15-12.47L139.15-12.47L139.15-12.47Q139.15-11.59 138.46-10.76L138.46-10.76L138.46-10.76Q133.95-5.75 130.82-2.90" fill="#00ffe5" stroke="none" stroke-width="none" transform="translate(-80.77499389648438,15.515401524135038)" style="fill: rgb(0, 255, 229);"></path></g><g class="path" style="opacity: 1; transform-origin: 59.545px 5.7654px; animation: 3.44828s linear -0.325123s infinite normal forwards running fade-55178ea8-f62a-41b4-aab5-bc6b62068fd6;"><path d="M140.81-4.46L140.81-4.46L140.81-4.46Q135.42 0.60 133.91 0.60L133.91 0.60L133.91 0.60Q133.12 0.60 133.12-0.46L133.12-0.46L133.12-0.46Q133.12-1.52 133.95-3.54L133.95-3.54L133.95-3.54Q134.78-5.57 135.61-7.08L135.61-7.08L136.44-8.56L136.44-8.56Q139.93-14.67 141.73-17.34L141.73-17.34L141.73-17.34Q142.51-18.49 143.73-19.30L143.73-19.30L143.73-19.30Q144.95-20.10 146.00-20.10L146.00-20.10L146.00-20.10Q146.37-20.10 146.37-19.78L146.37-19.78L146.37-19.78Q146.37-19.55 146.05-18.91L146.05-18.91L146.05-18.91Q145.50-17.89 143.34-14.08L143.34-14.08L143.34-14.08Q141.17-10.26 140.76-9.48L140.76-9.48L140.76-9.48Q138.87-6.16 138.87-5.06L138.87-5.06L138.87-5.06Q138.87-4.65 139.15-4.65L139.15-4.65L139.15-4.65Q139.61-4.65 142.09-6.95L142.09-6.95L142.09-6.95Q144.03-8.88 147.20-12.51L147.20-12.51L147.20-12.51Q147.34-12.65 147.43-12.65L147.43-12.65L147.43-12.65Q147.52-12.65 147.52-12.47L147.52-12.47L147.52-12.47Q147.52-11.59 146.83-10.76L146.83-10.76L146.83-10.76Q143.43-6.99 140.81-4.46" fill="#00ffe5" stroke="none" stroke-width="none" transform="translate(-80.77499389648438,15.515401524135038)" style="fill: rgb(0, 255, 229);"></path></g><g class="path" style="opacity: 1; transform-origin: 67.23px -9.8496px; animation: 3.44828s linear -0.162562s infinite normal forwards running fade-55178ea8-f62a-41b4-aab5-bc6b62068fd6;"><path d="M146.92-22.72L146.92-22.72L146.92-22.72Q145.77-22.72 145.77-24.10L145.77-24.10L145.77-24.10Q145.77-25.39 146.74-26.70L146.74-26.70L146.74-26.70Q147.71-28.01 148.86-28.01L148.86-28.01L148.86-28.01Q150.24-28.01 150.24-26.45L150.24-26.45L150.24-26.45Q150.24-25.16 149.18-23.94L149.18-23.94L149.18-23.94Q148.12-22.72 146.92-22.72" fill="#00ffe5" stroke="none" stroke-width="none" transform="translate(-80.77499389648438,15.515401524135038)" style="fill: rgb(0, 255, 229);"></path></g><g class="path" style="opacity: 1; transform-origin: 70.085px 5.6904px; animation: 3.44828s linear 0s infinite normal forwards running fade-55178ea8-f62a-41b4-aab5-bc6b62068fd6;"><path d="M154.38-9.52L154.38-9.52L154.38-9.52Q154.01-9.52 154.01-9.80L154.01-9.80L154.01-9.80Q154.01-9.94 154.15-10.17L154.15-10.17L154.15-10.17Q156.86-14.40 156.86-15.96L156.86-15.96L156.86-15.96Q156.86-16.38 156.54-16.38L156.54-16.38L156.54-16.38Q155.16-16.38 150.05-10.12L150.05-10.12L150.05-10.12Q148.53-8.19 147.22-6.12L147.22-6.12L147.22-6.12Q145.91-4.05 145.41-2.94L145.41-2.94L144.85-1.89L144.85-1.89Q144.30-0.78 143.15 0.16L143.15 0.16L143.15 0.16Q142.00 1.10 140.76 1.10L140.76 1.10L140.76 1.10Q140.12 1.10 140.12 0.78L140.12 0.78L140.12 0.78Q140.12 0.51 140.51-0.37L140.51-0.37L140.51-0.37Q140.90-1.24 141.45-2.30L141.45-2.30L141.45-2.30Q142.00-3.36 142.55-4.37L142.55-4.37L142.55-4.37Q143.11-5.38 143.47-6.07L143.47-6.07L143.89-6.76L148.72-15.18L148.72-15.18Q151.52-20.47 154.61-20.47L154.61-20.47L154.61-20.47Q155.02-20.47 155.02-20.15L155.02-20.15L155.02-20.15Q155.02-19.73 153.02-16.72L153.02-16.72L153.02-16.72Q151.02-13.71 150.70-12.88L150.70-12.88L150.70-12.88Q150.60-12.60 150.60-12.56L150.60-12.56L150.60-12.56Q150.60-12.47 150.70-12.47L150.70-12.47L150.70-12.47Q150.79-12.47 151.02-12.70L151.02-12.70L151.02-12.70Q154.47-16.61 158.33-19.64L158.33-19.64L158.33-19.64Q158.56-19.87 159.34-20.31L159.34-20.31L159.34-20.31Q160.13-20.75 160.72-20.75L160.72-20.75L160.72-20.75Q161.60-20.75 161.60-19.23L161.60-19.23L161.60-19.23Q161.60-17.57 160.49-15.27L160.49-15.27L160.49-15.27Q159.39-12.97 157.50-11.22L157.50-11.22L157.32-11.04L157.32-11.04Q157.14-10.90 156.93-10.74L156.93-10.74L156.93-10.74Q156.72-10.58 156.40-10.35L156.40-10.35L156.40-10.35Q156.08-10.12 155.76-9.96L155.76-9.96L155.76-9.96Q155.43-9.80 155.07-9.66L155.07-9.66L155.07-9.66Q154.70-9.52 154.38-9.52" fill="#00ffe5" stroke="none" stroke-width="none" transform="translate(-80.77499389648438,15.515401524135038)" style="fill: rgb(0, 255, 229);"></path></g></g>
</g>
</g>
<style id="fade-55178ea8-f62a-41b4-aab5-bc6b62068fd6" data-anikit="">@keyframes fade-55178ea8-f62a-41b4-aab5-bc6b62068fd6
{
  0% {
    animation-timing-function: cubic-bezier(0.2057,0.573,0.3723,0.9184);
    opacity: 1;
  }
  100% {
    opacity: 0;
  }
}</style></svg>